# xmcd
#
# Track frame offsets: 
#        150
#        32161
#        53243
#        75265
#        112062
#        134997
#        171070
#        216905
#        233633
#        246094
#
# Disc length: 3632 seconds
#
# Revision: 0
# Processed by: cddbd v1.5.2PL0 Copyright (c) Steve Scherf et al.
# Submitted via: ExactAudioCopyFreeDBPlugin 1.0
#
DISCID=890e2e0a
DTITLE=Miller Anderson - Bluesheart
DYEAR=1990
DGENRE=Bluesrock
TTITLE0=High Tide an high water
TTITLE1=Fallin back into the blue
TTITLE2=Littel Man Dancing
TTITLE3=Help Me
TTITLE4=House of the rising sun
TTITLE5=Runnin Blues
TTITLE6=Smokestack Lightnin
TTITLE7=Sinding me angels
TTITLE8=Houston
TTITLE9=Vigilante Man
EXTD=
EXTT0=
EXTT1=
EXTT2=
EXTT3=
EXTT4=
EXTT5=
EXTT6=
EXTT7=
EXTT8=
EXTT9=
PLAYORDER=
